<?xml version="1.0" encoding="UTF-8" standalone="no"?>
<svg
   version="1.1"
   width="100px"
   height="71px"
   style="shape-rendering:geometricPrecision; text-rendering:geometricPrecision; image-rendering:optimizeQuality; fill-rule:evenodd; clip-rule:evenodd"
   id="svg2"
   sodipodi:docname="logo.svg"
   inkscape:version="1.4.2 (f4327f4, 2025-05-13)"
   xmlns:inkscape="http://www.inkscape.org/namespaces/inkscape"
   xmlns:sodipodi="http://sodipodi.sourceforge.net/DTD/sodipodi-0.dtd"
   xmlns="http://www.w3.org/2000/svg"
   xmlns:svg="http://www.w3.org/2000/svg">
  <defs
     id="defs2" />
  <sodipodi:namedview
     id="namedview2"
     pagecolor="#ffffff"
     bordercolor="#000000"
     borderopacity="0.25"
     inkscape:showpageshadow="2"
     inkscape:pageopacity="0.0"
     inkscape:pagecheckerboard="0"
     inkscape:deskcolor="#d1d1d1"
     inkscape:zoom="11.366197"
     inkscape:cx="49.972739"
     inkscape:cy="35.5"
     inkscape:window-width="1920"
     inkscape:window-height="1009"
     inkscape:window-x="1912"
     inkscape:window-y="-8"
     inkscape:window-maximized="1"
     inkscape:current-layer="g1" />
  <g
     id="g1">
    <path
       style="opacity:0.919;fill:#00466c;fill-opacity:1"
       fill="#015789"
       d="M 51.5,25.5 C 50.8333,25.5 50.5,25.8333 50.5,26.5C 49.3773,28.5806 48.3773,30.7473 47.5,33C 47.7483,34.7491 48.7483,35.5824 50.5,35.5C 48.6309,36.1646 46.6309,36.8313 44.5,37.5C 42.5294,40.0267 41.8627,42.6934 42.5,45.5C 44.3325,44.7515 45.9991,43.7515 47.5,42.5C 47.8333,42.8333 48.1667,43.1667 48.5,43.5C 45.9516,47.2119 42.6183,50.0452 38.5,52C 35.2376,52.6955 33.2376,51.3621 32.5,48C 33.5976,44.3686 35.2642,41.0353 37.5,38C 33.1667,37.3333 28.8333,37.3333 24.5,38C 19.5,43 14.5,48 9.5,53C 7.97506,54.0086 6.30839,54.5086 4.5,54.5C 4.37201,52.3453 4.87201,50.3453 6,48.5C 10.4837,44.6012 14.9837,40.7678 19.5,37C 17.8659,36.5065 16.1992,36.3398 14.5,36.5C 14.6583,32.8285 16.3249,29.9951 19.5,28C 24.3619,27.329 27.0285,27.6624 27.5,29C 36.2098,19.4495 46.2098,11.6162 57.5,5.5C 58.6474,7.76488 58.8141,10.0982 58,12.5C 55.8068,16.8864 53.6401,21.2198 51.5,25.5 Z M 49.5,15.5 C 47.571,19.8546 45.2376,24.0212 42.5,28C 39.8333,28.6667 37.1667,28.6667 34.5,28C 38.8089,22.8449 43.8089,18.6782 49.5,15.5 Z"
       id="path1" />
  </g>
  <g
     id="g2">
    <path
       style="opacity:0.91"
       fill="#353233"
       d="M 50.5,35.5 C 48.7483,35.5824 47.7483,34.7491 47.5,33C 48.3773,30.7473 49.3773,28.5806 50.5,26.5C 51.1667,26.5 51.5,26.1667 51.5,25.5C 62.4677,20.9099 73.8011,19.7432 85.5,22C 93.1983,24.3791 95.6983,29.5458 93,37.5C 91.4371,40.7284 88.9371,42.8951 85.5,44C 78.2251,46.0542 70.8918,47.7209 63.5,49C 70.2505,51.806 76.9171,54.806 83.5,58C 85.7201,61.1014 86.0535,64.4347 84.5,68C 83.5,68.6667 82.5,68.6667 81.5,68C 73.1978,63.8489 64.8644,59.6822 56.5,55.5C 53.3662,57.7545 51.1996,60.7545 50,64.5C 46.1329,68.953 44.4663,68.2864 45,62.5C 46.776,59.0589 48.9426,55.8922 51.5,53C 48.2113,51.9233 47.7113,50.09 50,47.5C 51.8873,45.114 54.3873,43.9473 57.5,44C 60.6908,40.31 63.6908,36.4767 66.5,32.5C 63.5488,31.7764 60.5488,31.9431 57.5,33C 58.624,33.2492 59.624,33.7492 60.5,34.5C 57.2317,35.487 53.8984,35.8204 50.5,35.5 Z M 71.5,30.5 C 76.1785,30.3342 80.8452,30.5008 85.5,31C 89.7047,31.496 90.3714,33.1627 87.5,36C 80.5015,39.7498 73.1682,41.5831 65.5,41.5C 68.4054,38.2781 70.4054,34.6114 71.5,30.5 Z"
       id="path2" />
  </g>
</svg>
